<?xml version="1.0" encoding="UTF-8"?>
<svg width="180px" height="44px" viewBox="0 0 180 44" version="1.1" xmlns="http://www.w3.org/2000/svg" xmlns:xlink="http://www.w3.org/1999/xlink">
    <!-- Generator: Sketch 60.1 (88133) - https://sketch.com -->
    <title>Group</title>
    <desc>Created with Sketch.</desc>
    <defs>
        <polygon id="path-1" points="0.0323460899 0.113211314 179.917038 0.113211314 179.917038 43.6672213 0.0323460899 43.6672213"></polygon>
    </defs>
    <g id="Page-1" stroke="none" stroke-width="1" fill="none" fill-rule="evenodd">
        <g id="Artboard" transform="translate(-33.000000, -133.000000)">
            <g id="Group" transform="translate(33.000000, 133.000000)">
                <g id="Group-4">
                    <mask id="mask-2" fill="white">
                        <use xlink:href="#path-1"></use>
                    </mask>
                    <g id="Clip-2"></g>
                    <path d="M35.5257105,26.0175774 C42.0375175,26.0175774 45.4392479,23.0535973 45.4392479,18.2906356 C45.4392479,14.0134043 42.523787,11.5831348 37.9549018,11.5831348 C29.3535374,11.5831348 24.9307488,19.06802 24.9307488,26.0666356 C24.9307488,31.8495774 28.5265557,35.6885191 33.7272679,35.6885191 C35.6222097,35.6885191 39.4126323,35.0087121 41.551787,34.2793078 L41.551787,29.6144626 C38.5382097,30.1977704 37.2254975,30.3918469 35.5257105,30.3918469 C32.7056705,30.3918469 31.6856905,28.2047121 31.6856905,26.0175774 L35.5257105,26.0175774 Z M32.4145557,22.2271547 C32.9493444,19.1655973 35.1359401,17.0760399 36.7397671,17.0760399 C37.6632479,17.0760399 38.4411714,17.5132512 38.4411714,18.7763661 C38.4411714,20.4292512 36.7888253,22.2271547 34.4561331,22.2271547 L32.4145557,22.2271547 Z M9.7194609,20.4292512 C10.8860765,19.1655973 13.0241531,18.0475008 14.2392879,18.0475008 C15.7945957,18.0475008 16.3293844,19.5063095 16.3293844,20.7203661 C16.3293844,23.7328652 14.0457504,30.3918469 10.0116539,30.3918469 C9.37928785,30.3918469 7.67788353,30.1487121 7.67788353,30.1487121 L9.7194609,20.4292512 Z M12.3923261,5.99534775 L12.3923261,0.211866889 L1.55530782,0.211866889 L1.55530782,5.99534775 L5.54034609,5.99534775 L0,35.2033278 L3.49876872,35.2033278 C5.39424958,35.2033278 7.48380699,35.6885191 9.8650183,35.6885191 C18.2243261,35.6885191 23.0843261,26.7469817 23.0843261,19.5537504 C23.0843261,14.0624626 20.8001531,11.5831348 17.9817304,11.5831348 C15.0166722,11.5831348 12.1497304,13.6247121 10.5938835,15.0344626 L12.3923261,5.99534775 L12.3923261,5.99534775 Z" id="Fill-1" fill="#D82333" mask="url(#mask-2)"></path>
                    <polyline id="Fill-3" fill="#D82333" mask="url(#mask-2)" points="75.6224626 43.6672213 79.7347288 43.6672213 79.7347288 25.123208 84.3133178 25.123208 84.3133178 43.6672213 88.4174975 43.6672213 88.4174975 25.123208 92.9319334 25.123208 92.9319334 43.6672213 97.040426 43.6672213 97.040426 35.2858103 179.917038 35.2858103 179.917038 0.113211314 84.3133178 0.113211314 84.3133178 16.8787288 97.040426 16.8787288 97.040426 21.1219967 75.6224626 21.1219967 75.6224626 43.6672213"></polyline>
                </g>
                <polygon id="Fill-5" fill="#D82333" points="49.7073145 43.6672213 53.8114942 43.6672213 53.8114942 25.0401864 49.7073145 25.0401864"></polygon>
                <polygon id="Fill-6" fill="#D82333" points="58.3593544 43.6672213 62.4635341 43.6672213 62.4635341 25.0401864 58.3593544 25.0401864"></polygon>
                <polygon id="Fill-7" fill="#D82333" points="67.0124725 43.6672213 71.1161131 43.6672213 71.1161131 25.0401864 67.0124725 25.0401864"></polygon>
                <polygon id="Fill-8" fill="#D82333" points="49.7073145 21.1219967 75.6305491 21.1219967 75.6305491 16.8787288 49.7073145 16.8787288"></polygon>
                <path d="M70.4147421,11.4397338 C70.4147421,9.77660566 71.7624958,8.42831281 73.4250849,8.42831281 C75.088213,8.42831281 76.4354276,9.77660566 76.4354276,11.4397338 C76.4354276,13.1028619 75.088213,14.4511547 73.4250849,14.4511547 C71.7624958,14.4511547 70.4147421,13.1028619 70.4147421,11.4397338" id="Fill-9" fill="#D82333"></path>
                <path d="M158.651641,27.1604725 L161.147681,27.1604725 L161.147681,21.1219967 C161.147681,21.1219967 161.042556,19.981797 161.455507,18.7774443 C161.85606,17.6135241 162.771454,16.2905691 164.618955,16.1778968 C166.783448,16.0463561 166.654602,18.4351148 166.654602,18.4351148 L166.654602,27.1604725 L169.167894,27.1604725 L169.167894,18.1617903 C169.167894,18.1617903 169.373291,14.5697571 166.021697,14.4322862 C161.942855,14.266782 161.147681,16.8361398 161.147681,16.8361398 L161.147681,14.5697571 C161.147681,14.5697571 160.271641,14.5368719 158.860812,14.6161198 C157.518988,14.6942895 156.548606,14.7837804 156.548606,14.7837804 L156.548606,16.1175175 L158.651641,16.3655042 L158.651641,27.1604725 Z M150.323601,16.3827554 L148.169351,16.0927188 L148.169351,14.7579035 C149.008193,14.6813511 149.426536,14.6484659 150.323601,14.6128852 C151.409351,14.5697571 152.230403,14.5357937 152.769504,14.5697571 L152.769504,25.4321131 L155.026722,25.7744426 L155.026722,27.1604725 L148.169351,27.1604725 L148.169351,25.7744426 L150.323601,25.4321131 L150.323601,16.3827554 Z M149.776413,11.0030616 C149.776413,10.0731115 150.531155,9.31783028 151.461105,9.31783028 C152.391594,9.31783028 153.145258,10.0731115 153.145258,11.0030616 C153.145258,11.9340899 152.391594,12.6882928 151.461105,12.6882928 C150.531155,12.6882928 149.776413,11.9340899 149.776413,11.0030616 L149.776413,11.0030616 Z M141.688273,10.3782429 C141.688273,10.3782429 141.084479,10.2817438 140.696326,10.2332246 C140.263967,10.1793145 139.585777,10.1216306 139.585777,10.1216306 L139.585777,8.8213178 C139.585777,8.8213178 141.12006,8.72158403 142.099068,8.70271547 C142.928745,8.68600333 144.218815,8.70271547 144.218815,8.70271547 L144.218815,25.4321131 L146.339101,25.7744426 L146.339101,27.1604725 L139.585777,27.1604725 L139.585777,25.7744426 L141.688273,25.4321131 L141.688273,10.3782429 Z M121.236379,20.8308819 L129.359022,20.8308819 C129.359022,20.8308819 130.162822,14.1611181 124.417078,14.2964326 C119.32203,14.415574 118.791554,18.9823028 118.757052,20.8998869 C118.729018,22.4627421 119.084825,25.1533977 121.121551,26.5205591 C121.957697,27.0817637 123.654789,27.4753078 125.323847,27.3992945 C126.828479,27.3308286 128.811834,26.5954942 128.811834,26.5954942 L128.811834,24.6617371 C128.811834,24.6617371 127.195607,25.3970715 125.033271,25.4321131 C120.79216,25.500579 121.236379,20.8308819 121.236379,20.8308819 L121.236379,20.8308819 Z M124.365864,15.9811248 C127.164339,16.0711547 126.879694,18.9575042 126.879694,18.9575042 L121.407814,18.9575042 C121.407814,18.9575042 121.681677,15.8959468 124.365864,15.9811248 L124.365864,15.9811248 Z M135.224446,17.0329118 L135.224446,14.5697571 C135.224446,14.5697571 133.763481,14.5697571 132.831374,14.6042596 C132.009784,14.6339101 130.727261,14.723401 130.727261,14.723401 L130.727261,16.0743894 L132.831374,16.348792 L132.831374,27.1604725 L135.292912,27.1604725 L135.292912,21.4459967 C135.292912,21.4459967 135.189943,18.7343161 136.455754,17.3833278 C137.344193,16.4345092 139.208945,16.8113411 139.208945,16.8113411 L139.208945,14.4322862 C139.208945,14.4322862 137.712399,14.2360532 136.592146,14.9212512 C135.53389,15.5670948 135.224446,17.0329118 135.224446,17.0329118 L135.224446,17.0329118 Z M104.358729,11.1232812 C103.760865,11.0375641 103.384033,10.92597 103.384033,10.92597 L103.384033,9.49789018 C103.384033,9.49789018 104.529624,9.52322795 105.846649,9.5399401 C107.163135,9.55773045 108.308725,9.45476206 109.916326,9.45476206 C112.894323,9.45476206 116.153191,9.8655574 116.311687,13.6284859 C116.448619,16.8792679 113.198915,17.82 113.198915,17.82 C113.198915,17.82 116.824912,18.3165125 116.705231,22.1473677 C116.53811,27.5222097 109.882363,27.1604725 109.882363,27.1604725 L103.384033,27.1604725 L103.384033,25.7744426 L105.521571,25.3641864 L105.521571,11.2677604 C105.521571,11.2677604 105.129644,11.2327188 104.358729,11.1232812 L104.358729,11.1232812 Z M108.121118,18.9661298 L108.121118,25.1420765 C108.121118,25.1420765 109.425205,25.1857438 110.258656,25.1501631 C112.703481,25.0471947 114.159594,23.8719534 114.055008,21.9333444 C113.95204,20.0351681 112.609677,19.1704493 110.567022,18.9914676 C109.622516,18.9084459 108.121118,18.9661298 108.121118,18.9661298 L108.121118,18.9661298 Z M108.121118,11.4559068 L108.121118,17.1013777 C108.121118,17.1013777 109.086649,17.1013777 109.78802,17.0841265 C111.819894,17.0345291 113.657691,16.3665824 113.72993,14.0570715 C113.781684,12.4138902 112.507248,11.5939168 111.241977,11.5081997 C110.02792,11.425178 108.121118,11.4559068 108.121118,11.4559068 L108.121118,11.4559068 Z" id="Fill-10" fill="#FFFFFE"></path>
            </g>
        </g>
    </g>
</svg>